<svg width="141" height="30" viewBox="0 0 141 30" fill="none" xmlns="http://www.w3.org/2000/svg">
<path d="M27.724 5.55002H22.4596L22.9753 3.48843L25.1906 2.73397C25.6618 2.57383 25.9422 2.07317 25.8063 1.59449C25.7718 1.47407 25.7131 1.36193 25.6339 1.26487C25.5547 1.16781 25.4566 1.08785 25.3456 1.02984C25.2345 0.971836 25.1128 0.936989 24.9879 0.927417C24.863 0.917845 24.7375 0.933747 24.6189 0.974158L21.9017 1.89916C21.7554 1.94906 21.6239 2.03484 21.5192 2.14865C21.4146 2.26247 21.3402 2.4007 21.3028 2.55071L20.5529 5.55002H12.976C12.4783 5.55002 12.051 5.93274 12.0262 6.43051C12.0201 6.55557 12.0396 6.68056 12.0833 6.7979C12.127 6.91524 12.1941 7.02248 12.2804 7.11313C12.3668 7.20378 12.4707 7.27595 12.5858 7.32526C12.7009 7.37458 12.8248 7.40001 12.95 7.40002H13.109L13.1668 7.90068C13.1804 8.0176 13.2365 8.12543 13.3245 8.20367C13.4124 8.28192 13.526 8.3251 13.6438 8.32502C15.8984 8.32502 17.9022 8.95518 19.4319 10.1473C20.2828 10.8029 20.9725 11.6443 21.4484 12.6072C21.7149 13.1488 21.9114 13.7221 22.0335 14.3132C22.0578 14.4284 22.126 14.5296 22.2237 14.5954C23.0102 15.129 23.5903 15.9157 23.8678 16.8247C24.1452 17.7337 24.1032 18.7103 23.7488 19.5921C23.7076 19.6942 23.7045 19.8077 23.7401 19.9118C23.9449 20.4987 24.0497 21.1159 24.05 21.7375C24.05 23.0291 23.6106 24.2599 22.8128 25.2034C22.3605 25.7419 21.7915 26.1703 21.149 26.4562C21.0378 26.5052 20.9504 26.5959 20.9056 26.7088C20.6655 27.3343 20.3264 27.9172 19.9014 28.4351C19.8837 28.4561 19.8724 28.4817 19.8687 28.509C19.865 28.5362 19.8692 28.5639 19.8808 28.5888C19.8923 28.6138 19.9107 28.6349 19.9338 28.6498C19.9569 28.6646 19.9838 28.6726 20.0112 28.6727H22.8562C23.5527 28.6699 24.223 28.4064 24.735 27.9341C25.2469 27.4618 25.5636 26.8149 25.6225 26.1209L27.5997 7.40002H27.75C27.8753 7.40017 27.9994 7.37485 28.1146 7.3256C28.2298 7.27636 28.3338 7.20422 28.4203 7.11355C28.5068 7.02288 28.574 6.91559 28.6178 6.79817C28.6616 6.68076 28.681 6.55567 28.675 6.43051C28.6507 5.93274 28.2218 5.55002 27.724 5.55002Z" fill="#4E66F8"/>
<path d="M6.28363 18.5C6.46607 18.4992 6.64686 18.5345 6.81556 18.6039C6.98426 18.6734 7.13751 18.7756 7.26644 18.9047L8.16311 19.8014C8.18459 19.8229 8.21009 19.8399 8.23817 19.8516C8.26624 19.8632 8.29633 19.8692 8.32672 19.8692C8.35711 19.8692 8.3872 19.8632 8.41528 19.8516C8.44335 19.8399 8.46885 19.8229 8.49033 19.8014L9.38527 18.9047C9.5142 18.7756 9.66745 18.6734 9.83615 18.6039C10.0048 18.5345 10.1856 18.4992 10.3681 18.5H21.7329C21.7936 18.5006 21.8539 18.4893 21.9102 18.4666C21.9666 18.4439 22.0179 18.4103 22.0613 18.3678C22.1046 18.3253 22.1392 18.2747 22.163 18.2188C22.1868 18.1629 22.1994 18.1029 22.2 18.0421V18.0375C22.1993 17.5046 22.015 16.9882 21.678 16.5754C21.341 16.1626 20.872 15.8786 20.35 15.7713C20.3026 14.0548 19.5984 12.6182 18.2971 11.6088C17.0934 10.6699 15.4851 10.175 13.6437 10.175H9.48124C5.53727 10.175 2.86575 12.4164 2.77499 15.7713C2.25301 15.8786 1.78399 16.1626 1.44699 16.5754C1.11 16.9882 0.925639 17.5046 0.924988 18.0375C0.924988 18.1602 0.973715 18.2778 1.06045 18.3646C1.14719 18.4513 1.26483 18.5 1.38749 18.5H6.28363Z" fill="#4E66F8"/>
<path d="M10.7496 20.35C10.6889 20.3499 10.6287 20.3619 10.5726 20.3851C10.5164 20.4083 10.4654 20.4423 10.4224 20.4853L9.14246 21.7658C8.92563 21.9826 8.63158 22.1044 8.32499 22.1044C8.01839 22.1044 7.72435 21.9826 7.50752 21.7658L6.22755 20.4853C6.18457 20.4423 6.13354 20.4083 6.0774 20.3851C6.02125 20.3619 5.96109 20.3499 5.90033 20.35H1.88814C1.67086 20.349 1.46023 20.4249 1.2935 20.5642C1.12676 20.7036 1.01466 20.8974 0.977019 21.1114C0.942288 21.3183 0.924884 21.5277 0.924988 21.7375C0.924988 23.506 2.14657 24.9467 3.65721 24.975C3.79769 25.8491 4.13763 26.6389 4.64927 27.2569C5.40603 28.1709 6.50621 28.675 7.74686 28.675H15.3781C16.6188 28.675 17.7189 28.1709 18.4757 27.2557C18.9873 26.6377 19.3273 25.848 19.4678 24.9738C20.9784 24.9467 22.2 23.506 22.2 21.7363C22.2001 21.5265 22.1827 21.3171 22.148 21.1102C22.1101 20.8964 21.9979 20.7029 21.8312 20.5638C21.6644 20.4247 21.4539 20.349 21.2368 20.35H10.7496Z" fill="#4E66F8"/>
<path d="M44.266 12.172V14.09H40.262V16.162H43.258V18.024H40.262V22H37.868V12.172H44.266ZM50.1723 22.098C49.2483 22.098 48.3989 21.8833 47.6243 21.454C46.8589 21.0247 46.2476 20.4273 45.7903 19.662C45.3422 18.8873 45.1182 18.0193 45.1182 17.058C45.1182 16.0967 45.3422 15.2333 45.7903 14.468C46.2476 13.7027 46.8589 13.1053 47.6243 12.676C48.3989 12.2467 49.2483 12.032 50.1723 12.032C51.0963 12.032 51.9409 12.2467 52.7063 12.676C53.4809 13.1053 54.0876 13.7027 54.5263 14.468C54.9743 15.2333 55.1983 16.0967 55.1983 17.058C55.1983 18.0193 54.9743 18.8873 54.5263 19.662C54.0783 20.4273 53.4716 21.0247 52.7063 21.454C51.9409 21.8833 51.0963 22.098 50.1723 22.098ZM50.1723 19.914C50.9563 19.914 51.5816 19.6527 52.0482 19.13C52.5243 18.6073 52.7623 17.9167 52.7623 17.058C52.7623 16.19 52.5243 15.4993 52.0482 14.986C51.5816 14.4633 50.9563 14.202 50.1723 14.202C49.3789 14.202 48.7443 14.4587 48.2683 14.972C47.8016 15.4853 47.5683 16.1807 47.5683 17.058C47.5683 17.926 47.8016 18.6213 48.2683 19.144C48.7443 19.6573 49.3789 19.914 50.1723 19.914ZM61.1781 22.098C60.2541 22.098 59.4048 21.8833 58.6301 21.454C57.8648 21.0247 57.2534 20.4273 56.7961 19.662C56.3481 18.8873 56.1241 18.0193 56.1241 17.058C56.1241 16.0967 56.3481 15.2333 56.7961 14.468C57.2534 13.7027 57.8648 13.1053 58.6301 12.676C59.4048 12.2467 60.2541 12.032 61.1781 12.032C62.1021 12.032 62.9468 12.2467 63.7121 12.676C64.4868 13.1053 65.0934 13.7027 65.5321 14.468C65.9801 15.2333 66.2041 16.0967 66.2041 17.058C66.2041 18.0193 65.9801 18.8873 65.5321 19.662C65.0841 20.4273 64.4774 21.0247 63.7121 21.454C62.9468 21.8833 62.1021 22.098 61.1781 22.098ZM61.1781 19.914C61.9621 19.914 62.5874 19.6527 63.0541 19.13C63.5301 18.6073 63.7681 17.9167 63.7681 17.058C63.7681 16.19 63.5301 15.4993 63.0541 14.986C62.5874 14.4633 61.9621 14.202 61.1781 14.202C60.3848 14.202 59.7501 14.4587 59.2741 14.972C58.8074 15.4853 58.5741 16.1807 58.5741 17.058C58.5741 17.926 58.8074 18.6213 59.2741 19.144C59.7501 19.6573 60.3848 19.914 61.1781 19.914ZM71.218 12.172C72.254 12.172 73.1593 12.3773 73.934 12.788C74.7086 13.1987 75.306 13.7773 75.726 14.524C76.1553 15.2613 76.37 16.1153 76.37 17.086C76.37 18.0473 76.1553 18.9013 75.726 19.648C75.306 20.3947 74.704 20.9733 73.92 21.384C73.1453 21.7947 72.2446 22 71.218 22H67.536V12.172H71.218ZM71.064 19.928C71.9693 19.928 72.674 19.6807 73.178 19.186C73.682 18.6913 73.934 17.9913 73.934 17.086C73.934 16.1807 73.682 15.476 73.178 14.972C72.674 14.468 71.9693 14.216 71.064 14.216H69.93V19.928H71.064ZM83.0686 14.09V16.078H86.2746V17.926H83.0686V20.082H86.6946V22H80.6746V12.172H86.6946V14.09H83.0686ZM94.2689 22L92.2669 18.99L90.5029 22H87.7869L90.9369 17.002L87.7169 12.172H90.5029L92.4769 15.14L94.2129 12.172H96.9289L93.8069 17.128L97.0549 22H94.2689ZM105.747 15.336C105.747 15.9053 105.616 16.428 105.355 16.904C105.093 17.3707 104.692 17.7487 104.151 18.038C103.609 18.3273 102.937 18.472 102.135 18.472H100.651V22H98.2567V12.172H102.135C102.919 12.172 103.581 12.3073 104.123 12.578C104.664 12.8487 105.07 13.222 105.341 13.698C105.611 14.174 105.747 14.72 105.747 15.336ZM101.953 16.568C102.41 16.568 102.751 16.4607 102.975 16.246C103.199 16.0313 103.311 15.728 103.311 15.336C103.311 14.944 103.199 14.6407 102.975 14.426C102.751 14.2113 102.41 14.104 101.953 14.104H100.651V16.568H101.953ZM112.005 22L109.961 18.29H109.387V22H106.993V12.172H111.011C111.786 12.172 112.444 12.3073 112.985 12.578C113.536 12.8487 113.946 13.222 114.217 13.698C114.488 14.1647 114.623 14.6873 114.623 15.266C114.623 15.9193 114.436 16.5027 114.063 17.016C113.699 17.5293 113.158 17.8933 112.439 18.108L114.707 22H112.005ZM109.387 16.596H110.871C111.31 16.596 111.636 16.4887 111.851 16.274C112.075 16.0593 112.187 15.756 112.187 15.364C112.187 14.9907 112.075 14.6967 111.851 14.482C111.636 14.2673 111.31 14.16 110.871 14.16H109.387V16.596ZM118.52 14.09V16.078H121.726V17.926H118.52V20.082H122.146V22H116.126V12.172H122.146V14.09H118.52ZM127.256 22.098C126.537 22.098 125.893 21.9813 125.324 21.748C124.755 21.5147 124.297 21.1693 123.952 20.712C123.616 20.2547 123.439 19.704 123.42 19.06H125.968C126.005 19.424 126.131 19.704 126.346 19.9C126.561 20.0867 126.841 20.18 127.186 20.18C127.541 20.18 127.821 20.1007 128.026 19.942C128.231 19.774 128.334 19.5453 128.334 19.256C128.334 19.0133 128.25 18.8127 128.082 18.654C127.923 18.4953 127.723 18.3647 127.48 18.262C127.247 18.1593 126.911 18.0427 126.472 17.912C125.837 17.716 125.319 17.52 124.918 17.324C124.517 17.128 124.171 16.8387 123.882 16.456C123.593 16.0733 123.448 15.574 123.448 14.958C123.448 14.0433 123.779 13.3293 124.442 12.816C125.105 12.2933 125.968 12.032 127.032 12.032C128.115 12.032 128.987 12.2933 129.65 12.816C130.313 13.3293 130.667 14.048 130.714 14.972H128.124C128.105 14.6547 127.989 14.4073 127.774 14.23C127.559 14.0433 127.284 13.95 126.948 13.95C126.659 13.95 126.425 14.0293 126.248 14.188C126.071 14.3373 125.982 14.5567 125.982 14.846C125.982 15.1633 126.131 15.4107 126.43 15.588C126.729 15.7653 127.195 15.9567 127.83 16.162C128.465 16.3767 128.978 16.582 129.37 16.778C129.771 16.974 130.117 17.2587 130.406 17.632C130.695 18.0053 130.84 18.486 130.84 19.074C130.84 19.634 130.695 20.1427 130.406 20.6C130.126 21.0573 129.715 21.4213 129.174 21.692C128.633 21.9627 127.993 22.098 127.256 22.098ZM135.869 22.098C135.151 22.098 134.507 21.9813 133.937 21.748C133.368 21.5147 132.911 21.1693 132.565 20.712C132.229 20.2547 132.052 19.704 132.033 19.06H134.581C134.619 19.424 134.745 19.704 134.959 19.9C135.174 20.0867 135.454 20.18 135.799 20.18C136.154 20.18 136.434 20.1007 136.639 19.942C136.845 19.774 136.947 19.5453 136.947 19.256C136.947 19.0133 136.863 18.8127 136.695 18.654C136.537 18.4953 136.336 18.3647 136.093 18.262C135.86 18.1593 135.524 18.0427 135.085 17.912C134.451 17.716 133.933 17.52 133.531 17.324C133.13 17.128 132.785 16.8387 132.495 16.456C132.206 16.0733 132.061 15.574 132.061 14.958C132.061 14.0433 132.393 13.3293 133.055 12.816C133.718 12.2933 134.581 12.032 135.645 12.032C136.728 12.032 137.601 12.2933 138.263 12.816C138.926 13.3293 139.281 14.048 139.327 14.972H136.737C136.719 14.6547 136.602 14.4073 136.387 14.23C136.173 14.0433 135.897 13.95 135.561 13.95C135.272 13.95 135.039 14.0293 134.861 14.188C134.684 14.3373 134.595 14.5567 134.595 14.846C134.595 15.1633 134.745 15.4107 135.043 15.588C135.342 15.7653 135.809 15.9567 136.443 16.162C137.078 16.3767 137.591 16.582 137.983 16.778C138.385 16.974 138.73 17.2587 139.019 17.632C139.309 18.0053 139.453 18.486 139.453 19.074C139.453 19.634 139.309 20.1427 139.019 20.6C138.739 21.0573 138.329 21.4213 137.787 21.692C137.246 21.9627 136.607 22.098 135.869 22.098Z" fill="black"/>
</svg>
